HIERARCHY
ROOT Hips
{
	OFFSET	0.00	0.00	0.00
	CHANNELS 6 Xposition Yposition Zposition Zrotation Xrotation Yrotation
	JOINT LeftUpLeg
	{
		OFFSET	 0.126116	-0.065224	 0.014019
		CHANNELS 3 Zrotation Xrotation Yrotation
		JOINT LeftLeg
		{
			OFFSET	 0.000000	 0.569914	 0.000000
			CHANNELS 3 Zrotation Xrotation Yrotation
			JOINT LeftFoot
			{
				OFFSET	 0.000000	 0.544423	 0.000000
				CHANNELS 3 Zrotation Xrotation Yrotation
				JOINT LeftToeBase
				{
					OFFSET	 0.000000	 0.207117	 0.000000
					CHANNELS 3 Zrotation Xrotation Yrotation
					End Site
					{
						OFFSET	 0.000000	 0.207117	 0.000000
					}
				}
			}
		}
	}
	JOINT RightUpLeg
	{
		OFFSET	-0.124023	-0.065224	 0.008373
		CHANNELS 3 Zrotation Xrotation Yrotation
		JOINT RightLeg
		{
			OFFSET	 0.000000	 0.570047	 0.000000
			CHANNELS 3 Zrotation Xrotation Yrotation
			JOINT RightFoot
			{
				OFFSET	 0.000000	 0.544354	 0.000000
				CHANNELS 3 Zrotation Xrotation Yrotation
				JOINT RightToeBase
				{
					OFFSET	 0.000000	 0.207540	 0.000000
					CHANNELS 3 Zrotation Xrotation Yrotation
					End Site
					{
						OFFSET	 0.000000	 0.207540	 0.000000
					}
				}
			}
		}
	}
	JOINT Spine
	{
		OFFSET	 0.000184	 0.117403	 0.007763
		CHANNELS 3 Zrotation Xrotation Yrotation
		JOINT Spine1
		{
			OFFSET	 0.000000	 0.137269	 0.000000
			CHANNELS 3 Zrotation Xrotation Yrotation
			JOINT Spine2
			{
				OFFSET	 0.000000	 0.156879	 0.000000
				CHANNELS 3 Zrotation Xrotation Yrotation
				JOINT LeftShoulder
				{
					OFFSET	 0.080501	 0.160143	 0.002496
					CHANNELS 3 Zrotation Xrotation Yrotation
					JOINT LeftArm
					{
						OFFSET	 0.000000	 0.164363	 0.000000
						CHANNELS 3 Zrotation Xrotation Yrotation
						JOINT LeftForeArm
						{
							OFFSET	 0.000000	 0.364576	 0.000000
							CHANNELS 3 Zrotation Xrotation Yrotation
							JOINT LeftHand
							{
								OFFSET	 0.000000	 0.360812	 0.000000
								CHANNELS 3 Zrotation Xrotation Yrotation
								JOINT LeftHandIndex1
								{
									OFFSET	 0.000000	 0.086006	 0.000000
									CHANNELS 3 Zrotation Xrotation Yrotation
									JOINT LeftHandIndex2
									{
										OFFSET	 0.000000	 0.047237	 0.000000
										CHANNELS 3 Zrotation Xrotation Yrotation
										JOINT LeftHandIndex3
										{
											OFFSET	-0.004284	 0.038165	 0.000551
											CHANNELS 3 Zrotation Xrotation Yrotation
											End Site
											{
												OFFSET	-0.004284	 0.038165	 0.000551
											}
										}
									}
								}
							}
						}
					}
				}
				JOINT Neck
				{
					OFFSET	 0.000000	 0.176489	 0.000000
					CHANNELS 3 Zrotation Xrotation Yrotation
					JOINT Head
					{
						OFFSET	 0.000000	 0.077941	 0.001747
						CHANNELS 3 Zrotation Xrotation Yrotation
						End Site
						{
							OFFSET	 0.000000	 0.077941	 0.001747
						}
					}
				}
				JOINT RightShoulder
				{
					OFFSET	-0.080363	 0.159706	-0.000306
					CHANNELS 3 Zrotation Xrotation Yrotation
					JOINT RightArm
					{
						OFFSET	 0.000000	 0.164196	 0.000000
						CHANNELS 3 Zrotation Xrotation Yrotation
						JOINT RightForeArm
						{
							OFFSET	 0.000000	 0.365611	 0.000000
							CHANNELS 3 Zrotation Xrotation Yrotation
							JOINT RightHand
							{
								OFFSET	 0.000000	 0.360648	 0.000000
								CHANNELS 3 Zrotation Xrotation Yrotation
								JOINT RightHandIndex1
								{
									OFFSET	 0.000000	 0.069977	 0.000000
									CHANNELS 3 Zrotation Xrotation Yrotation
									JOINT RightHandIndex2
									{
										OFFSET	 0.000000	 0.052305	 0.000000
										CHANNELS 3 Zrotation Xrotation Yrotation
										JOINT RightHandIndex3
										{
											OFFSET	 0.009002	 0.042196	 0.000782
											CHANNELS 3 Zrotation Xrotation Yrotation
											End Site
											{
												OFFSET	 0.009002	 0.042196	 0.000782
											}
										}
									}
								}
							}
						}
					}
				}
			}
		}
	}
}
MOTION
Frames:    12
Frame Time: 0.03333334
 0.454810	 1.074723	 0.626934	-7.580754	-30.722660	-179.416200	 144.056600	 71.636230	 23.471520	 25.642300	-58.454950	 30.521840	 40.297760	 75.483920	-42.047160	 1.292262	 28.425850	-2.713146	 168.344800	 78.657970	 5.961303	-22.380540	-63.215210	-30.874830	-48.903960	 71.002070	 50.877040	-1.288183	 28.361890	 2.710176	-0.028191	 13.020210	-1.235581	-0.319791	 14.613830	-1.793824	-1.344394	 1.165044	-1.692307	-121.790100	 28.588620	 104.973800	 33.632360	 5.734503	 11.447320	 40.635440	-3.033530	-39.493780	 25.931100	-20.146410	 21.178280	-6.580301	 5.266122	 0.000000	 0.000000	 0.000000	 0.000000	 0.000000	 0.000000	 0.000000	 3.278471	 20.047340	-1.649622	-2.067382	-31.593020	-0.511112	 124.554600	 27.466730	-105.671100	-36.674060	 1.780415	 5.437979	-41.239030	 0.901035	-3.968780	-26.650910	-27.150650	-19.178450	 15.208500	 5.323790	 0.000000	 0.000000	 0.000000	 0.000000	 0.000000	 0.000000	 0.000000
 0.448031	 1.119642	 0.620358	-6.129335	-27.886260	-178.330900	 154.839800	 64.509280	 14.030690	 19.381820	-51.322380	 24.992030	 34.126630	 73.321000	-35.246120	 1.292262	 28.425850	-2.713146	 170.081500	 70.282990	 5.537319	-16.538070	-55.971440	-26.149390	-44.703690	 69.049130	 46.763310	-1.288183	 28.361890	 2.710176	 0.262900	 11.420080	-1.229248	 0.118435	 13.931450	-1.630756	-0.835834	-1.215787	-1.696486	-117.778500	 25.232710	 102.048300	 32.885030	 14.896410	 9.767287	 44.112070	-3.241821	-37.663220	 28.621580	-19.976280	 20.558550	-6.580301	 5.266122	 0.000000	 0.000000	 0.000000	 0.000000	 0.000000	 0.000000	 0.000000	 0.904813	 8.786119	-1.092054	-0.667024	-21.438950	-0.626957	 122.358400	 24.958890	-103.636800	-34.681940	 7.137958	 2.346822	-46.497640	 0.991433	-3.838736	-29.151500	-28.580950	-20.521110	 15.208500	 5.323790	 0.000000	 0.000000	 0.000000	 0.000000	 0.000000	 0.000000	 0.000000
 0.445964	 1.148153	 0.610785	-4.343096	-25.169950	-177.051400	 160.578200	 58.688580	 10.176260	 16.341350	-46.644080	 22.881040	 32.275590	 71.893520	-33.262730	 1.292262	 28.425850	-2.713146	 171.855500	 63.547600	 5.572906	-13.675350	-50.889270	-23.308610	-41.539710	 68.231060	 43.342550	-1.288183	 28.361890	 2.710176	 0.679167	 9.844089	-1.265706	 0.961063	 16.348480	-1.468319	-0.388534	-5.609391	-1.669631	-113.866800	 21.302140	 99.248540	 34.283610	 23.009790	 8.160292	 45.839840	-3.341017	-35.165100	 33.192190	-19.802550	 20.778860	-6.580301	 5.266122	 0.000000	 0.000000	 0.000000	 0.000000	 0.000000	 0.000000	 0.000000	-0.652677	-1.833099	-0.971018	 0.041298	-12.046120	-0.795903	 118.677800	 21.953550	-101.088700	-34.784410	 13.216640	 1.311164	-50.447050	 1.012116	-5.272840	-32.442370	-30.312860	-22.515000	 15.208500	 5.323790	 0.000000	 0.000000	 0.000000	 0.000000	 0.000000	 0.000000	 0.000000
 0.444953	 1.172862	 0.595499	-2.720867	-21.878630	-175.838000	 164.818200	 52.284130	 7.937520	 14.078360	-42.478600	 21.221310	 31.096830	 70.848370	-31.825810	 1.292262	 28.425850	-2.713146	 172.973000	 56.270420	 6.217295	-11.477310	-45.991860	-19.262120	-35.907130	 68.764970	 36.850670	-1.288183	 28.361890	 2.710176	 0.812865	 8.219158	-1.133624	 1.342423	 15.797270	-1.200832	 0.097071	-8.183640	-1.630256	-116.242600	 18.849420	 98.691700	 31.750110	 25.288830	 13.317070	 48.763590	-3.501806	-31.919490	 33.741870	-20.752540	 20.865060	-6.580301	 5.266122	 0.000000	 0.000000	 0.000000	 0.000000	 0.000000	 0.000000	 0.000000	-1.724602	-2.572152	-1.057692	 0.478720	-10.845930	-0.973472	 120.180000	 19.011920	-100.053000	-31.955640	 16.686060	-1.652054	-54.021050	 1.106028	-7.157861	-32.549710	-30.491270	-22.741320	 15.208500	 5.323790	 0.000000	 0.000000	 0.000000	 0.000000	 0.000000	 0.000000	 0.000000
 0.443150	 1.203718	 0.575409	-1.210748	-18.730820	-174.712300	 168.820500	 44.667370	 6.145256	 11.150690	-36.053300	 18.993160	 27.937830	 69.121830	-28.123990	 1.292262	 28.425850	-2.713146	 174.305700	 47.698600	 6.632127	-8.818833	-38.577000	-14.615780	-28.065620	 68.300330	 27.933280	-1.288183	 28.361890	 2.710176	 0.866639	 6.078900	-1.116370	 1.331523	 12.558660	-0.950362	 0.672907	-9.281921	-1.624131	-118.177800	 16.407100	 97.949420	 28.437570	 26.663680	 19.136420	 52.166710	-3.677324	-28.752780	 31.094870	-21.383440	 19.556620	-6.580301	 5.266122	 0.000000	 0.000000	 0.000000	 0.000000	 0.000000	 0.000000	 0.000000	-1.931859	-2.364248	-1.168982	 0.392835	-10.187440	-1.013730	 123.049500	 16.123330	-99.287450	-28.800680	 18.839070	-5.393233	-57.266080	 1.117702	-8.925530	-30.955760	-29.262240	-21.279900	 15.208500	 5.323790	 0.000000	 0.000000	 0.000000	 0.000000	 0.000000	 0.000000	 0.000000
 0.443237	 1.227295	 0.553577	-0.688855	-14.695170	-174.247500	 171.665400	 36.263570	 4.639395	 8.947852	-30.347750	 16.530000	 23.953270	 68.171170	-23.506570	 1.292262	 28.425850	-2.713146	 175.434400	 39.064380	 6.651622	-6.864268	-31.874060	-10.647590	-20.723770	 67.563770	 19.372800	-1.288183	 28.361890	 2.710176	 0.747679	 4.650975	-0.954170	 1.084525	 9.156941	-0.878318	 0.778518	-8.839375	-1.647890	-119.100700	 14.008720	 96.974260	 26.587710	 27.397400	 23.258320	 55.141370	-3.820099	-25.643050	 27.955860	-21.390600	 17.630070	-6.580301	 5.266122	 0.000000	 0.000000	 0.000000	 0.000000	 0.000000	 0.000000	 0.000000	-1.413901	-0.527518	-1.350767	 0.077711	-10.247110	-0.955962	 124.161800	 13.716330	-98.250460	-26.782300	 21.084510	-7.584047	-60.081510	 1.184659	-10.529400	-28.333270	-27.798780	-18.729270	 15.208500	 5.323790	 0.000000	 0.000000	 0.000000	 0.000000	 0.000000	 0.000000	 0.000000
 0.444696	 1.242408	 0.533374	-0.371516	-11.738500	-174.228000	 173.666700	 29.916260	 3.460259	 7.511020	-26.199430	 14.083170	 19.539390	 67.928960	-18.468950	 1.292262	 28.425850	-2.713146	 176.357100	 32.312020	 6.454372	-5.684279	-27.262590	-7.051359	-13.840000	 67.421550	 11.369730	-1.288183	 28.361890	 2.710176	 0.610262	 3.666924	-0.768626	 1.044888	 8.079078	-0.794480	 0.552112	-8.990047	-1.738020	-119.516300	 11.768340	 95.963690	 26.189850	 27.527770	 25.354750	 57.092140	-3.908238	-22.765740	 25.829120	-20.670170	 15.670350	-6.580301	 5.266122	 0.000000	 0.000000	 0.000000	 0.000000	 0.000000	 0.000000	 0.000000	-0.653200	 1.707995	-1.604430	-0.177697	-10.324810	-0.876889	 124.619100	 11.548140	-97.181240	-26.065340	 22.985890	-8.654699	-62.045580	 1.207286	-11.969500	-26.637690	-26.728470	-16.791800	 15.208500	 5.323790	 0.000000	 0.000000	 0.000000	 0.000000	 0.000000	 0.000000	 0.000000
 0.446967	 1.257160	 0.505949	 0.093133	-9.899769	-174.301500	 175.649700	 23.882480	 2.429765	 5.984693	-21.428450	 11.046820	 13.903720	 67.825650	-12.002230	 1.292262	 28.425850	-2.713146	 177.187000	 25.854200	 6.396180	-4.353759	-21.552100	-3.253709	-6.408301	 66.659420	 2.758253	-1.288183	 28.361890	 2.710176	 0.304030	 2.790777	-0.505219	 0.750787	 5.523802	-0.702650	 0.266062	-8.296372	-1.766878	-119.767600	 9.012444	 94.669780	 26.287490	 27.870670	 28.492710	 59.658020	-4.017231	-19.270900	 24.588680	-20.249010	 13.795630	-6.580301	 5.266122	 0.000000	 0.000000	 0.000000	 0.000000	 0.000000	 0.000000	 0.000000	 0.078372	 4.662558	-1.863247	-0.049482	-9.515365	-0.826691	 124.577400	 9.087746	-95.865690	-25.779310	 25.645960	-9.554389	-64.125420	 1.229832	-13.831510	-23.550180	-25.267870	-13.729550	 15.208500	 5.323790	 0.000000	 0.000000	 0.000000	 0.000000	 0.000000	 0.000000	 0.000000
 0.448032	 1.264297	 0.491322	 0.274066	-7.998262	-173.959800	 176.499800	 19.414740	 2.421095	 5.084619	-18.449310	 9.133317	 10.238580	 67.702100	-7.767291	 1.292262	 28.425850	-2.713146	 177.558800	 21.136130	 6.407001	-3.605563	-18.117320	-1.376758	-2.902120	 65.988950	-1.376148	-1.288183	 28.361890	 2.710176	 0.175199	 2.518882	-0.344591	 0.410401	 2.846518	-0.645856	 0.238573	-7.018545	-1.672777	-120.049700	 7.414672	 93.926900	 26.342040	 28.620580	 30.451530	 60.911900	-4.067540	-17.400350	 21.640870	-20.032800	 12.009390	-6.580301	 5.266122	 0.000000	 0.000000	 0.000000	 0.000000	 0.000000	 0.000000	 0.000000	 0.250868	 6.518710	-1.863027	 0.143636	-8.834066	-0.835987	 124.315100	 7.831341	-95.166170	-25.488060	 27.221310	-9.955594	-64.899460	 1.237685	-14.652160	-21.357080	-23.881720	-11.507630	 15.208500	 5.323790	 0.000000	 0.000000	 0.000000	 0.000000	 0.000000	 0.000000	 0.000000
 0.448370	 1.270229	 0.477757	 0.417598	-6.268474	-173.793300	 177.393000	 15.350990	 2.273350	 4.161553	-15.278520	 7.277007	 6.582084	 67.369780	-3.560679	 1.292262	 28.425850	-2.713146	 177.909700	 16.616610	 6.681974	-2.825777	-14.385610	 0.130191	-0.360260	 65.047320	-4.519572	-1.288183	 28.361890	 2.710176	 0.090656	 2.286252	-0.261379	 0.227218	 0.718362	-0.623013	 0.214785	-5.880654	-1.527100	-120.537800	 5.723136	 93.144600	 25.986670	 29.293550	 30.132930	 62.037360	-4.111055	-15.577570	 19.079140	-19.085910	 9.848967	-6.580301	 5.266122	 0.000000	 0.000000	 0.000000	 0.000000	 0.000000	 0.000000	 0.000000	 0.291084	 8.102444	-1.764286	 0.339096	-8.032873	-0.850126	 123.934000	 6.628168	-94.489520	-24.894810	 28.899970	-10.441950	-65.348530	 1.242198	-15.291550	-19.791900	-22.358410	-9.666934	 15.208500	 5.323790	 0.000000	 0.000000	 0.000000	 0.000000	 0.000000	 0.000000	 0.000000
 0.448230	 1.271784	 0.472376	 0.424090	-5.084937	-174.041300	 177.790500	 13.367270	 1.856266	 3.915414	-14.415030	 6.691793	 5.385789	 67.305980	-2.209021	 1.292262	 28.425850	-2.713146	 178.082300	 14.558420	 6.395096	-2.617928	-13.367630	 0.110426	-0.651844	 64.801090	-4.341921	-1.288183	 28.361890	 2.710176	 0.074271	 2.072919	-0.229079	 0.291612	 1.366324	-0.551707	 0.134809	-6.379715	-1.394545	-120.947100	 4.897546	 92.767280	 25.451060	 29.968520	 30.190610	 62.219210	-4.117956	-15.263110	 18.827380	-19.120150	 9.616315	-6.580301	 5.266122	 0.000000	 0.000000	 0.000000	 0.000000	 0.000000	 0.000000	 0.000000	 0.328340	 7.771236	-1.676488	 0.326113	-7.232509	-0.831654	 123.796800	 6.123225	-94.211140	-24.712330	 29.880270	-10.650410	-65.295280	 1.241656	-15.423170	-19.975590	-22.038120	-9.660761	 15.208500	 5.323790	 0.000000	 0.000000	 0.000000	 0.000000	 0.000000	 0.000000	 0.000000
 0.447874	 1.274325	 0.465286	 0.392222	-3.947372	-174.283700	 178.115800	 11.359690	 1.470594	 3.688763	-13.613620	 6.114542	 4.243904	 67.357800	-0.901813	 1.292262	 28.425850	-2.713146	 178.161600	 12.470100	 6.134174	-2.431299	-12.446170	 0.050750	-0.946757	 64.720310	-4.099435	-1.288183	 28.361890	 2.710176	 0.037599	 1.869666	-0.165615	 0.134439	 0.290251	-0.485751	 0.153416	-6.064223	-1.252248	-121.344300	 4.108430	 92.400320	 24.464680	 30.871260	 30.728250	 62.365670	-4.068789	-14.935550	 18.257470	-19.051690	 9.173250	-6.580301	 5.266122	 0.000000	 0.000000	 0.000000	 0.000000	 0.000000	 0.000000	 0.000000	 0.364516	 7.453718	-1.592165	 0.312385	-6.464974	-0.813906	 123.667600	 5.638459	-93.945620	-24.083170	 31.044870	-11.275350	-65.211940	 1.240815	-15.549980	-19.784060	-21.601470	-9.303766	 15.208500	 5.323790	 0.000000	 0.000000	 0.000000	 0.000000	 0.000000	 0.000000	 0.000000
